<?xml version="1.0" encoding="UTF-8"?>
<svg version="1.1" xmlns="http://www.w3.org/2000/svg" width="480" height="480">
<path d="M0 0 C5.8680477 0.60991743 11.0379908 2.20925736 16.5859375 4.17578125 C17.50881561 4.49732681 18.43169373 4.81887238 19.38253784 5.15016174 C22.38241251 6.1975949 25.37880391 7.2545946 28.375 8.3125 C30.4409858 9.03754269 32.50706722 9.76231297 34.57324219 10.48681641 C40.71977396 12.64585329 46.8606752 14.82056661 53 17 C53.90423706 17.32059387 54.80847412 17.64118774 55.7401123 17.97149658 C60.53554803 19.67263693 65.32793826 21.3818624 70.11505127 23.10629272 C71.53305759 23.61685851 72.95163421 24.12584327 74.37078857 24.63320923 C76.31708024 25.3303473 78.26048591 26.03494581 80.203125 26.7421875 C81.28239258 27.1326123 82.36166016 27.52303711 83.47363281 27.92529297 C86 29 86 29 88 31 C79.37750751 46.64911403 70.74270749 62.2910642 62.05053711 77.90161133 C58.33281213 84.58270261 54.65188118 91.28270555 51 98 C40.98145549 95.48303478 31.24289129 92.16540553 21.4609375 88.87109375 C19.6854553 88.27476553 17.90995243 87.67849887 16.13442993 87.08229065 C12.43730364 85.83981683 8.74109816 84.59464536 5.04541016 83.34790039 C0.30082851 81.74786899 -4.44701073 80.15774186 -9.19568825 78.56991482 C-12.85180703 77.34564542 -16.50565367 76.11470608 -20.15888596 74.8818531 C-21.91003398 74.29212245 -23.66201129 73.70484851 -25.414814 73.12005424 C-27.8513991 72.30635719 -30.28465641 71.48339546 -32.71728516 70.65795898 C-33.44446747 70.41739273 -34.17164978 70.17682648 -34.92086792 69.92897034 C-39.88585115 68.2282977 -39.88585115 68.2282977 -41 66 C-39.99047852 63.98242188 -39.99047852 63.98242188 -38.37890625 61.46875 C-37.78102295 60.52580078 -37.18313965 59.58285156 -36.56713867 58.61132812 C-35.90560791 57.58458984 -35.24407715 56.55785156 -34.5625 55.5 C-33.17349103 53.31312731 -31.7855052 51.12560449 -30.3984375 48.9375 C-29.85744667 48.08726257 -29.85744667 48.08726257 -29.30552673 47.21984863 C-25.36478803 41.0215682 -21.5253158 34.76249842 -17.6875 28.5 C-11.8366772 18.97145653 -5.94928263 9.46736804 0 0 Z " fill="#47704C" transform="translate(160,169)"/>
<path d="M0 0 C3.61117956 0.6467556 6.95888473 1.59276314 10.41918945 2.80664062 C11.48253006 3.17793091 12.54587067 3.54922119 13.64143372 3.9317627 C14.7871434 4.33584351 15.93285309 4.73992432 17.11328125 5.15625 C18.31446091 5.57741089 19.51564056 5.99857178 20.7532196 6.43249512 C23.3068574 7.32818782 25.85965684 8.22621923 28.41186523 9.12597656 C30.97735513 10.03030374 33.54370414 10.93210706 36.11108398 11.83105469 C52.82025093 17.68235359 69.4546883 23.69957842 86 30 C84.46503862 33.89996982 82.74856598 37.63186804 80.875 41.3828125 C80.57182358 41.99052994 80.26864716 42.59824738 79.95628357 43.22438049 C78.97325176 45.19246292 77.98690586 47.15885768 77 49.125 C76.66396759 49.79584625 76.32793518 50.4666925 75.98171997 51.15786743 C70.78019905 61.5387514 65.49718654 71.87059657 60.00634766 82.10205078 C59.0481656 83.90916076 58.1227643 85.73353952 57.19921875 87.55859375 C56.67972656 88.57050781 56.16023438 89.58242188 55.625 90.625 C55.20476562 91.46289062 54.78453125 92.30078125 54.3515625 93.1640625 C53 95 53 95 51.39219666 95.75483704 C47.79102118 96.12390153 44.73786782 94.90236909 41.37329102 93.75854492 C40.6102063 93.5083107 39.84712158 93.25807648 39.06091309 93.0002594 C36.53849655 92.17029022 34.02129961 91.32553939 31.50390625 90.48046875 C29.75068838 89.90003804 27.99717947 89.32048574 26.24339294 88.74177551 C21.62425429 87.21471683 17.0094711 85.67487791 12.39538574 84.13262939 C8.63373347 82.87763768 4.86915594 81.63156922 1.10437107 80.38601208 C-6.68148985 77.80992548 -14.4654407 75.22800506 -22.24389648 72.62963867 C-22.95834427 72.39213898 -23.67279205 72.15463928 -24.40888977 71.90994263 C-27.98717394 70.71166963 -31.51389205 69.44556111 -35 68 C-34.31813676 64.65143428 -33.05966477 61.93725976 -31.48046875 58.9140625 C-30.9587207 57.91181641 -30.43697266 56.90957031 -29.89941406 55.87695312 C-29.33448242 54.80380859 -28.76955078 53.73066406 -28.1875 52.625 C-27.60581055 51.51318359 -27.02412109 50.40136719 -26.42480469 49.25585938 C-21.65235639 40.16572775 -16.75259471 31.148214 -11.8125 22.1484375 C-7.79037883 14.81055942 -3.89074676 7.40813903 0 0 Z " fill="#47704C" transform="translate(255,202)"/>
<path d="M0 0 C7.60871904 1.34035504 14.72940022 3.85240005 21.99609375 6.4296875 C23.22481705 6.86129181 24.45354034 7.29289612 25.71949768 7.73757935 C28.30835003 8.64724224 30.8959748 9.56028444 33.48266602 10.47607422 C36.76981013 11.63976752 40.05915787 12.79706736 43.34936428 13.95207024 C46.52417465 15.06705845 49.69762179 16.18589527 52.87109375 17.3046875 C54.03805283 17.71524384 55.2050119 18.12580017 56.40733337 18.54879761 C63.0024409 20.88482818 69.52915172 23.33834298 76 26 C75.19980582 30.70552237 73.34873929 34.16057288 70.875 38.1875 C69.96601603 39.6983582 69.0585669 41.21014048 68.15234375 42.72265625 C67.65202637 43.55555176 67.15170898 44.38844727 66.63623047 45.24658203 C63.51124216 50.50525379 60.48333395 55.82023926 57.4375 61.125 C48.67420875 76.33256595 48.67420875 76.33256595 44.6875 83.0625 C44.33292725 83.66916504 43.97835449 84.27583008 43.61303711 84.90087891 C41.23416448 88.88291776 41.23416448 88.88291776 39 90 C36.01938585 89.13482077 33.12503712 88.19367507 30.19921875 87.16796875 C29.30276642 86.86036621 28.40631409 86.55276367 27.48269653 86.23583984 C24.54839035 85.22702512 21.61791509 84.20755693 18.6875 83.1875 C16.68404133 82.49526053 14.6803785 81.80361167 12.67651367 81.11254883 C8.66827068 79.72940773 4.66141371 78.34234327 0.65527344 76.953125 C-4.33382237 75.22594424 -9.3322596 73.52813441 -14.3359375 71.84375 C-15.69498518 71.38410569 -17.05395658 70.92423575 -18.4128418 70.46411133 C-20.88401771 69.62834528 -23.35678557 68.79726808 -25.83129883 67.97143555 C-27.45201294 67.41903198 -27.45201294 67.41903198 -29.10546875 66.85546875 C-30.03512451 66.54246826 -30.96478027 66.22946777 -31.92260742 65.90698242 C-34 65 -34 65 -35 63 C-34.03466797 60.7512207 -34.03466797 60.7512207 -32.4921875 57.92578125 C-31.63959351 56.35219849 -31.63959351 56.35219849 -30.76977539 54.74682617 C-30.14449951 53.61349854 -29.51922363 52.4801709 -28.875 51.3125 C-28.23443445 50.13870602 -27.59438454 48.96463052 -26.95483398 47.7902832 C-22.20127335 39.08569956 -17.33805166 30.44252361 -12.43212891 21.82299805 C-8.91438565 15.64203958 -5.48954879 9.4232534 -2.171875 3.1328125 C-1 1 -1 1 0 0 Z " fill="#47704C" transform="translate(351,237)"/>
<path d="M0 0 C8.3813151 -0.18796402 16.66870988 0.4026136 25.01953125 1.05859375 C26.45055793 1.16854496 27.88160386 1.278246 29.31266785 1.38771057 C32.29221714 1.61646975 35.27154447 1.84788217 38.25073242 2.08129883 C42.06100613 2.37966298 45.87172449 2.67183604 49.68262196 2.96211147 C52.62965044 3.18717817 55.57644181 3.4152323 58.52316856 3.64421272 C59.92846779 3.75310713 61.33383374 3.86114416 62.73926735 3.96829033 C64.70116534 4.11836394 66.6627254 4.27283549 68.62426758 4.42749023 C69.73772049 4.51409409 70.8511734 4.60069794 71.99836731 4.68992615 C74.72148904 4.97122934 77.32880097 5.40994091 80 6 C74.84355756 17.43516941 69.11645953 28.45775917 63.0546875 39.4375 C60.05143255 44.88125849 57.13657581 50.36863955 54.25 55.875 C53.81961426 56.69597168 53.38922852 57.51694336 52.94580078 58.36279297 C51.9624861 60.24113963 50.98101232 62.12044985 50 64 C39.91011214 64.0622886 29.84221706 63.87455942 19.7578125 63.5625 C18.25325047 63.51747767 16.74868287 63.47264075 15.24411011 63.42797852 C11.33484284 63.31144778 7.42565487 63.19244413 3.51647949 63.07287598 C-0.49287397 62.95069824 -4.50229932 62.83092752 -8.51171875 62.7109375 C-16.34121699 62.47627723 -24.17063282 62.23899718 -32 62 C-31.28654589 58.07927746 -30.20725405 55.14546487 -28.296875 51.6328125 C-27.73468262 50.59302246 -27.17249023 49.55323242 -26.59326172 48.48193359 C-25.98498535 47.37414551 -25.37670898 46.26635742 -24.75 45.125 C-23.81631592 43.40724365 -23.81631592 43.40724365 -22.86376953 41.65478516 C-18.09678547 32.90192525 -13.21763766 24.21194672 -8.26464844 15.56298828 C-5.34096222 10.44606857 -2.58129164 5.29844074 0 0 Z " fill="#47704C" transform="translate(185,303)"/>
<path d="M0 0 C2.44432045 0.25662362 2.44432045 0.25662362 5.53466797 0.23339844 C12.421596 0.34083881 15.60991368 3.4604116 20.28857422 8.20996094 C21.94675787 9.71933324 23.61380754 11.21901012 25.28857422 12.70996094 C26.13935547 13.47695313 26.99013672 14.24394531 27.86669922 15.03417969 C29.91500651 16.87435253 31.96966256 18.70553211 34.03857422 20.52246094 C34.97636719 21.34617187 34.97636719 21.34617187 35.93310547 22.18652344 C37.89321235 23.87033001 39.87154432 25.52435855 41.86279297 27.17089844 C42.49797852 27.70158936 43.13316406 28.23228027 43.78759766 28.77905273 C45.06182278 29.84288628 46.34228669 30.89929944 47.62939453 31.94750977 C52.87871805 36.34954122 52.87871805 36.34954122 53.28857422 40.20996094 C52.69665527 42.08409119 52.69665527 42.08409119 51.67724609 44.0378418 C51.29934937 44.77638901 50.92145264 45.51493622 50.53210449 46.27586365 C50.111427 47.06751419 49.69074951 47.85916473 49.25732422 48.67480469 C48.82859009 49.50395889 48.39985596 50.3331131 47.95812988 51.18739319 C46.57948535 53.84675334 45.18423796 56.49700013 43.78857422 59.14746094 C42.87863808 60.89754985 41.96977214 62.64819564 41.06201172 64.39941406 C36.22229425 73.71514607 31.30118676 82.98612202 26.28857422 92.20996094 C23.06341759 90.80505644 21.05303339 89.15870908 18.67919922 86.57714844 C18.00630859 85.85269531 17.33341797 85.12824219 16.64013672 84.38183594 C15.94662109 83.62386719 15.25310547 82.86589844 14.53857422 82.08496094 C13.17007992 80.60199183 11.80028966 79.12021759 10.42919922 77.63964844 C9.75010498 76.90609131 9.07101074 76.17253418 8.37133789 75.41674805 C5.66812483 72.55256532 2.88208338 69.77926622 0.07202148 67.02026367 C-1.71236128 65.20901135 -3.37636306 63.33326838 -5.02392578 61.39746094 C-8.37482984 57.49446285 -11.99619473 53.895221 -15.6550293 50.28588867 C-18.89791404 47.06984622 -21.95710284 43.76184226 -24.88330078 40.25683594 C-27.6932774 37.1106228 -30.71079735 34.17336586 -33.71142578 31.20996094 C-31.55650025 26.52783527 -29.36532053 21.86815628 -27.10205078 17.23730469 C-25.66388864 14.28484895 -24.36143183 11.36855091 -23.25830078 8.27636719 C-18.71554963 -2.59751704 -10.29834988 -1.01308169 0 0 Z " fill="#47704C" transform="translate(155.71142578125,372.7900390625)"/>
<path d="M0 0 C3.1354974 2.91322232 5.31631839 5.86426098 7.51171875 9.53125 C8.17872803 10.63823242 8.8457373 11.74521484 9.53295898 12.88574219 C10.25117406 14.09047408 10.96935347 15.29522724 11.6875 16.5 C12.43825957 17.74939854 13.18965382 18.99841591 13.94165039 20.24707031 C15.5085473 22.85005582 17.07268141 25.45467052 18.63476562 28.06054688 C22.02208993 33.70748049 25.43753757 39.33729843 28.85543823 44.96575928 C29.9307966 46.73894658 31.00294356 48.5140415 32.07446289 50.28955078 C35.09017945 55.27389467 38.12082215 60.23522187 41.32421875 65.1015625 C41.80576416 65.83922852 42.28730957 66.57689453 42.78344727 67.33691406 C43.63989045 68.63802192 44.51020809 69.93017239 45.39819336 71.20996094 C47.19214088 73.93976095 48.03634355 75.5363504 47.77758789 78.83740234 C46.95002628 82.2032526 45.7654642 84.69651583 44.05078125 87.703125 C43.44943359 88.76660156 42.84808594 89.83007812 42.22851562 90.92578125 C41.59623047 92.02277344 40.96394531 93.11976563 40.3125 94.25 C39.69955078 95.33152344 39.08660156 96.41304688 38.45507812 97.52734375 C34.73081344 104.07541463 30.90793129 110.56000405 27 117 C23.56069417 115.51873643 21.33045662 113.57572554 18.69921875 110.9296875 C17.88646484 110.115 17.07371094 109.3003125 16.23632812 108.4609375 C15.39521484 107.60757813 14.55410156 106.75421875 13.6875 105.875 C12.44323242 104.62976563 12.44323242 104.62976563 11.17382812 103.359375 C7.5637934 99.72369678 4.01919292 96.08216509 0.70703125 92.171875 C-2.39898643 88.55491265 -5.7554728 85.26295869 -9.1875 81.9609375 C-10.30862305 80.87503025 -11.42971645 79.78909238 -12.55078125 78.703125 C-14.28527984 77.02448231 -16.02428418 75.35205569 -17.77880859 73.69433594 C-19.49379926 72.07000766 -21.18564978 70.42436188 -22.875 68.7734375 C-23.40504639 68.28265717 -23.93509277 67.79187683 -24.48120117 67.28622437 C-25.9296875 65.84912109 -25.9296875 65.84912109 -28 63 C-28.00808645 58.33527401 -26.09197935 54.67569022 -24.04296875 50.546875 C-23.74357391 49.9369722 -23.44417908 49.3270694 -23.13571167 48.69868469 C-22.49287061 47.39068787 -21.84663151 46.08435653 -21.19729614 44.77957153 C-19.48275312 41.33354162 -17.79333834 37.87521725 -16.1015625 34.41796875 C-15.75813309 33.71768051 -15.41470367 33.01739227 -15.06086731 32.29588318 C-11.62204513 25.26651045 -8.32598159 18.1746392 -5.0625 11.0625 C-4.54905029 9.94391602 -4.03560059 8.82533203 -3.5065918 7.67285156 C-2.33529449 5.11633434 -1.16617421 2.55885724 0 0 Z " fill="#47704C" transform="translate(87,281)"/>
<path d="M0 0 C7.9698824 1.53122319 15.43048876 4.1260186 23.0546875 6.8671875 C24.40536566 7.3484471 25.75620921 7.82924276 27.10720825 8.30960083 C30.64572448 9.56918527 34.18191339 10.83518051 37.71765137 12.10253906 C41.28818747 13.38100635 44.86101548 14.65303453 48.43359375 15.92578125 C59.6341613 19.91865331 70.82481845 23.93629762 82 28 C82 45.16 82 62.32 82 80 C68.90112378 75.41539332 55.81078189 70.81580277 42.75 66.125 C41.91490906 65.82518219 41.07981812 65.52536438 40.21942139 65.21646118 C29.66840396 61.42590303 19.12777598 57.61012522 8.625 53.6875 C7.63983398 53.32092285 6.65466797 52.9543457 5.63964844 52.57666016 C4.76083008 52.24585449 3.88201172 51.91504883 2.9765625 51.57421875 C2.22455566 51.29151123 1.47254883 51.00880371 0.69775391 50.7175293 C-1 50 -1 50 -2 49 C-2.49361225 38.73576879 -1.94160667 28.38444553 -1.62567139 18.11776733 C-1.58353585 16.74689673 -1.54272497 15.37598476 -1.50323486 14.0050354 C-1.44599075 12.05658801 -1.38134231 10.10836246 -1.31640625 8.16015625 C-1.27974854 7.02199463 -1.24309082 5.88383301 -1.20532227 4.71118164 C-1 2 -1 2 0 0 Z " fill="#47704C" transform="translate(166,110)"/>
<path d="M0 0 C14.84437747 5.11034259 29.56077925 10.52350689 44.25 16.0625 C46.33585835 16.84721564 48.42179561 17.63172153 50.5078125 18.41601562 C54.37060511 19.86858163 58.2329048 21.32244299 62.09472656 22.77758789 C69.39412475 25.52466998 76.69737228 28.2615146 84 31 C84 46.84 84 62.68 84 79 C76.58618326 76.97804998 69.437121 74.86024055 62.234375 72.26953125 C61.23907776 71.91541672 60.24378052 71.56130219 59.21832275 71.19645691 C56.06084557 70.07226908 52.905353 68.94263451 49.75 67.8125 C46.65034271 66.70607023 43.550274 65.60081908 40.44958496 64.49728394 C38.3941802 63.76380525 36.34021039 63.02629257 34.28771973 62.28469849 C29.01911292 60.38879276 23.74094738 58.58297362 18.39648438 56.91162109 C17.33576721 56.57080002 16.27505005 56.22997894 15.18218994 55.87882996 C13.16044281 55.23264567 11.13132666 54.60894623 9.09466553 54.01142883 C2.44714571 51.85650066 2.44714571 51.85650066 0.38232422 47.90136719 C-0.08448149 43.13792193 -0.24862515 38.47552748 -0.1953125 33.69140625 C-0.1924826 32.72468491 -0.18965271 31.75796356 -0.18673706 30.76194763 C-0.17560407 27.69533548 -0.15051224 24.62902285 -0.125 21.5625 C-0.11496131 19.47461361 -0.10583701 17.38672262 -0.09765625 15.29882812 C-0.07568727 10.19910456 -0.04120507 5.09960295 0 0 Z " fill="#47704C" transform="translate(259,143)"/>
<path d="M0 0 C8.70148225 0.59469445 17.24820664 1.69844024 25.859375 3.06640625 C27.76496185 3.36393044 27.76496185 3.36393044 29.70904541 3.66746521 C33.04348542 4.18812845 36.37710805 4.71384698 39.71057129 5.24072266 C43.12947357 5.78015082 46.54914527 6.31465574 49.96875 6.84960938 C56.64654133 7.89526779 63.32356122 8.94574204 70 10 C68.73537866 14.10888753 67.20563057 17.71574848 65.09375 21.45703125 C64.52164795 22.47998291 63.9495459 23.50293457 63.36010742 24.55688477 C62.09922505 26.76371852 60.82550919 28.96326015 59.5402832 31.15600586 C56.62332234 36.16040661 53.88377087 40.92666291 52.01171875 46.421875 C50.23729375 51.2474693 48.56818372 55.29281252 44 58 C34.8908865 60.15559174 25.22029559 59.00060032 15.97216797 58.32128906 C10.63115559 57.94613873 5.29371732 57.81353159 -0.05859375 57.7109375 C-0.97697021 57.69322296 -1.89534668 57.67550842 -2.84155273 57.65725708 C-4.67558904 57.62256205 -6.50963449 57.58834746 -8.34368896 57.55462646 C-12.69986793 57.46710194 -17.05492853 57.34418811 -21.41015625 57.21875 C-22.18040634 57.19678558 -22.95065643 57.17482117 -23.74424744 57.15219116 C-25.49618014 57.10198772 -27.24809273 57.05108314 -29 57 C-27.12785219 52.21128134 -24.92433209 47.65757918 -22.625 43.0625 C-22.1916333 42.19512207 -21.7582666 41.32774414 -21.31176758 40.43408203 C-17.4437491 32.75834369 -13.36271289 25.20697707 -9.19970703 17.68774414 C-5.98021432 11.86259409 -2.93903841 5.97127849 0 0 Z " fill="#47704C" transform="translate(274,311)"/>
<path d="M0 0 C2.12093819 0.44471285 4.24050468 0.89724635 6.3515625 1.38671875 C8.11056949 1.79404043 9.87665393 2.17196899 11.6484375 2.51953125 C12.50695312 2.71933594 13.36546875 2.91914063 14.25 3.125 C15.03890625 3.29257812 15.8278125 3.46015625 16.640625 3.6328125 C20.38224226 5.8009682 21.96361996 9.31989576 24 13 C24.58346191 14.03479492 25.16692383 15.06958984 25.76806641 16.13574219 C27.75743548 19.68592346 29.7255707 23.24712088 31.6875 26.8125 C32.70231763 28.65431322 33.71779369 30.49575351 34.7348175 32.33634949 C35.64985464 33.9926763 36.56266213 35.65023432 37.4753418 37.30786133 C39.01010246 40.09384595 39.01010246 40.09384595 41 43 C40.66214307 46.79788433 39.34192937 49.51322404 37.40234375 52.75390625 C36.5822583 54.13980957 36.5822583 54.13980957 35.74560547 55.55371094 C35.14893066 56.54661133 34.55225586 57.53951172 33.9375 58.5625 C32.66642151 60.70350927 31.39695917 62.84547864 30.12890625 64.98828125 C29.1236792 66.68525146 29.1236792 66.68525146 28.09814453 68.41650391 C25.90569608 72.14241903 23.77472109 75.90181349 21.65234375 79.66796875 C21.29424118 80.30195084 20.93613861 80.93593292 20.56718445 81.58912659 C19.15467779 84.09051427 17.74241685 86.59194078 16.3420105 89.10012817 C15.36664074 90.8460586 14.38269356 92.5871887 13.3984375 94.328125 C12.55804932 95.82714355 12.55804932 95.82714355 11.70068359 97.35644531 C10.03183276 99.95051893 8.26285896 101.91700773 6 104 C-0.62712841 91.80935638 -6.71868845 79.41083849 -12.63476562 66.86132812 C-13.97393185 64.05463496 -15.34764921 61.26783182 -16.734375 58.484375 C-17.15912109 57.62118652 -17.58386719 56.75799805 -18.02148438 55.86865234 C-18.81937861 54.24907927 -19.62742952 52.6344562 -20.44726562 51.02587891 C-20.97610352 49.94185791 -20.97610352 49.94185791 -21.515625 48.8359375 C-21.82790039 48.21251465 -22.14017578 47.5890918 -22.46191406 46.94677734 C-23.89159696 41.77423133 -20.75389522 37.22074263 -18.359375 32.79296875 C-17.99531555 32.10874344 -17.6312561 31.42451813 -17.25616455 30.71955872 C-16.48583658 29.2748698 -15.71239095 27.83183947 -14.93603516 26.39038086 C-13.7613937 24.20866207 -12.59668933 22.02187612 -11.43359375 19.83398438 C-7.82923424 13.08029981 -4.1916009 6.41314937 0 0 Z " fill="#47704C" transform="translate(137,253)"/>
<path d="M0 0 C11.70696242 3.35041469 23.14346597 7.50302239 34.57792664 11.67294312 C38.15569046 12.97688121 41.73798687 14.26242627 45.33642578 15.50830078 C48.84499794 16.72359688 52.33500336 17.98232405 55.81652832 19.27297974 C57.13776354 19.75423144 58.46478174 20.21991792 59.79724121 20.66915894 C63.85379349 22.04387373 67.53993328 23.45018398 71 26 C72.76031377 29.66071416 72.92901983 32.98107046 73 37 C73.18014712 38.42726409 73.37655408 39.85263522 73.59423828 41.2746582 C73.75659335 42.61626093 73.91524656 43.9583165 74.0703125 45.30078125 C74.15626678 46.02565231 74.24222107 46.75052338 74.33078003 47.49736023 C74.50884846 49.00691017 74.68520688 50.51666281 74.85986328 52.02661133 C75.12660428 54.32633139 75.40085848 56.62507336 75.67578125 58.92382812 C75.84940529 60.40359346 76.02259784 61.8834095 76.1953125 63.36328125 C76.27653351 64.04151443 76.35775452 64.71974762 76.44143677 65.41853333 C76.88473281 69.30042056 77.07787237 73.09390678 77 77 C64.33325242 72.63108282 51.80313595 67.93725892 39.29614258 63.1315918 C36.17579474 61.93300377 33.05381915 60.73873194 29.93164062 59.54492188 C20.23094821 55.82874773 10.54231398 52.11015898 1 48 C-0.11586638 31.99927319 -0.10778821 16.03391014 0 0 Z " fill="#47704C" transform="translate(352,177)"/>
<path d="M0 0 C8.90865464 2.46843465 17.52829766 5.68880214 26.18359375 8.91015625 C27.73147222 9.48416434 29.27941132 10.05800896 30.82740784 10.63169861 C34.05132401 11.8273374 37.27436899 13.0252883 40.49682617 14.22485352 C44.62646682 15.76184695 48.75845429 17.29241917 52.89112759 18.82123661 C56.07912478 20.00148683 59.26576461 21.18536665 62.45201302 22.3703289 C63.97581113 22.93647062 65.50005375 23.50141743 67.02474785 24.06514168 C69.14868547 24.85097901 71.2707209 25.64175 73.39233398 26.43383789 C75.20241188 27.10643394 75.20241188 27.10643394 77.04905701 27.7926178 C80 29 80 29 83 31 C83.26686213 33.69540315 83.34818073 36.15847464 83.29296875 38.8515625 C83.28872391 39.62559418 83.28447906 40.39962585 83.28010559 41.19711304 C83.26328998 43.67342677 83.22563395 46.14893158 83.1875 48.625 C83.17245682 50.30207159 83.15876778 51.97915592 83.14648438 53.65625 C83.11337721 57.77114581 83.06157637 61.88543569 83 66 C78.85384298 65.41377295 75.18931164 64.47015807 71.28027344 62.97802734 C70.17762146 62.56024017 69.07496948 62.142453 67.93890381 61.71200562 C66.7576593 61.25790314 65.57641479 60.80380066 64.359375 60.3359375 C63.11087629 59.86042083 61.86219506 59.38538313 60.61334229 58.91079712 C57.3238481 57.65917396 54.03698953 56.40076656 50.75061035 55.14099121 C47.47081065 53.88522557 44.18838019 52.63637738 40.90625 51.38671875 C27.58371084 46.31055763 14.27684924 41.1946065 1 36 C0.09819338 23.97464997 -0.11118107 12.05696967 0 0 Z " fill="#47704C" transform="translate(258,96)"/>
<path d="M0 0 C3.01672222 2.92755264 5.10653889 5.60400068 7.13671875 9.296875 C7.99716797 10.84797974 7.99716797 10.84797974 8.875 12.43041992 C9.473125 13.52588135 10.07125 14.62134277 10.6875 15.75 C11.93019548 18.01215517 13.17368586 20.27387384 14.41796875 22.53515625 C15.02431152 23.63875488 15.6306543 24.74235352 16.25537109 25.87939453 C17.78612301 28.61743973 19.36311446 31.31342876 20.98828125 33.99609375 C21.41858643 34.71635742 21.8488916 35.43662109 22.29223633 36.17871094 C23.07429473 37.47945413 23.87147205 38.77127456 24.6862793 40.05175781 C26.41213098 42.96232159 27.14763196 44.41907801 26.29833984 47.76098633 C24.88371526 51.29009959 23.26207077 54.66289827 21.5078125 58.03125 C20.99411858 59.02923363 20.99411858 59.02923363 20.470047 60.04737854 C19.35966016 62.20068119 18.2426509 64.35045995 17.125 66.5 C16.35871952 67.98099401 15.59252537 69.46203269 14.82641602 70.94311523 C8.72023677 82.72175161 2.44785286 94.40446303 -4 106 C-7.31894059 102.14652635 -9.11879397 97.63748572 -11.16015625 93.03515625 C-11.55069687 92.16483261 -11.94123749 91.29450897 -12.34361267 90.39781189 C-13.58793005 87.62144556 -14.82516824 84.84198548 -16.0625 82.0625 C-16.89865217 80.19576802 -17.73523603 78.32922934 -18.57226562 76.46289062 C-22.81121549 66.9934829 -22.81121549 66.9934829 -24.13919067 63.95266724 C-24.83661333 62.37062772 -25.57005698 60.8045006 -26.31420898 59.24389648 C-27.71337597 54.66584601 -25.55540784 50.74044745 -23.49975586 46.65893555 C-22.97929184 45.6182341 -22.45882782 44.57753265 -21.92259216 43.5052948 C-21.35903519 42.3936647 -20.79547821 41.28203461 -20.21484375 40.13671875 C-19.63916153 38.98959915 -19.06347931 37.84247955 -18.47035217 36.66059875 C-16.94510856 33.62152665 -15.41269028 30.58612881 -13.87872314 27.55145264 C-12.3125655 24.44991004 -10.75325684 21.3449288 -9.19335938 18.24023438 C-6.13558115 12.15678325 -3.0702056 6.0771883 0 0 Z " fill="#47704C" transform="translate(79,116)"/>
<path d="M0 0 C6.1803499 0.5833507 11.49275275 2.47021182 17.26953125 4.68359375 C18.25612228 5.05518112 19.24271332 5.42676849 20.25920105 5.80961609 C23.44629018 7.01201655 26.62941055 8.22455562 29.8125 9.4375 C31.99002367 10.26146199 34.1677585 11.08486619 36.34570312 11.90771484 C42.56781238 14.26132649 48.78489451 16.6279631 55 19 C55.82562439 19.31499451 56.65124878 19.62998901 57.50189209 19.95452881 C65.34329262 22.94758435 73.17375073 25.96732841 81 29 C81 40.55 81 52.1 81 64 C69.74887766 60.6246633 69.74887766 60.6246633 64.33203125 58.61157227 C62.51964966 57.94056236 62.51964966 57.94056236 60.6706543 57.2559967 C59.38456441 56.77623628 58.09851394 56.29637019 56.8125 55.81640625 C55.46078143 55.3143736 54.108973 54.81258286 52.75708008 54.3110199 C49.93922443 53.26484564 47.12214071 52.21662903 44.30566406 51.16674805 C40.72308554 49.83134012 37.13909787 48.4997661 33.55458069 47.16957188 C30.76754299 46.13508624 27.98102143 45.09921647 25.19467163 44.06287956 C23.87447891 43.57189582 22.55418943 43.08117214 21.23379517 42.59073067 C13.78294324 39.82165209 6.36140625 36.99951763 -1 34 C-1.15298709 22.62795953 -0.68416471 11.34980389 0 0 Z " fill="#47704C" transform="translate(167,64)"/>
<path d="M0 0 C5.51428356 1.22539635 10.24057963 2.29157956 15.4309082 4.16723633 C16.61276199 4.59140335 17.79461578 5.01557037 19.01228333 5.45259094 C20.27518964 5.91220198 21.5380204 6.37202068 22.80078125 6.83203125 C24.12666218 7.31083746 25.45268951 7.78923846 26.77885437 8.26725769 C29.5477524 9.2666252 32.3152785 10.2696721 35.08178711 11.27563477 C38.59261113 12.55210453 42.10605622 13.82115947 45.6204958 15.08763599 C48.35746653 16.07453876 51.09331252 17.06452882 53.82881737 18.05548668 C55.12207443 18.52377273 56.41558537 18.99135835 57.70937538 19.45816994 C59.53428911 20.11735339 61.35761677 20.78092256 63.1809082 21.44458008 C64.7257061 22.00511833 64.7257061 22.00511833 66.30171204 22.57698059 C71.57839548 24.60733167 76.78108653 26.82545272 82 29 C82 40.55 82 52.1 82 64 C70.74865637 60.62459691 70.74865637 60.62459691 66.82348633 59.14990234 C65.93748245 58.81880463 65.05147858 58.48770691 64.1386261 58.14657593 C63.2124498 57.79656525 62.2862735 57.44655457 61.33203125 57.0859375 C60.33531906 56.7119986 59.33860687 56.33805969 58.31169128 55.95278931 C56.20761402 55.16263332 54.10413231 54.37088978 52.0012207 53.57763672 C48.86742478 52.39571507 45.73175305 51.21889479 42.59570312 50.04296875 C28.68199925 44.81594306 14.83133716 39.44130343 1 34 C0.67 22.78 0.34 11.56 0 0 Z " fill="#47704C" transform="translate(257,51)"/>
<path d="M0 0 C6.52527597 1.874249 12.8854389 3.98901319 19.21484375 6.44140625 C20.06100754 6.765681 20.90717133 7.08995575 21.77897644 7.42405701 C23.57583025 8.11297031 25.37208986 8.8034352 27.16778564 9.49536133 C31.84468388 11.29731573 36.52599831 13.08772626 41.20703125 14.87890625 C42.1315509 15.23296539 43.05607056 15.58702454 44.00860596 15.95181274 C55.63648512 20.39979957 67.31564438 24.70230598 79 29 C79 40.55 79 52.1 79 64 C74.18591931 63.19765322 70.5563117 62.23336276 66.06420898 60.53149414 C65.39836792 60.28096786 64.73252686 60.03044159 64.04650879 59.77232361 C61.86101249 58.9485176 59.67857132 58.11692302 57.49609375 57.28515625 C55.96982749 56.70798145 54.44338108 56.13128285 52.91676331 55.55503845 C48.90719281 54.04004049 44.90019631 52.51834503 40.89367676 50.99530029 C36.82201035 49.44897362 32.74776699 47.90946779 28.67382812 46.36914062 C22.71675975 44.1153736 16.76040166 41.85974878 10.80639648 39.59790039 C9.60981918 39.14347061 8.41324188 38.68904083 7.18040466 38.22084045 C4.44364612 37.17029944 1.71820548 36.09749038 -1 35 C-1.02931979 30.85418181 -1.04690557 26.70839075 -1.0625 22.5625 C-1.07506836 20.81549805 -1.07506836 20.81549805 -1.08789062 19.03320312 C-1.10602151 12.59673798 -0.86649876 6.37934125 0 0 Z " fill="#47704C" transform="translate(169,17)"/>
<path d="M0 0 C7.12293965 1.4112353 13.75461935 3.54115922 20.5703125 6.02734375 C21.6507785 6.41692764 22.73124451 6.80651154 23.8444519 7.207901 C26.11614923 8.02818655 28.38689826 8.85110263 30.65673828 9.67651367 C34.11931197 10.93543195 37.58475268 12.1861759 41.05078125 13.43554688 C43.26579715 14.23650324 45.48064666 15.03791994 47.6953125 15.83984375 C48.72463898 16.21181381 49.75396545 16.58378387 50.81448364 16.96702576 C53.54900372 17.96261694 56.27476613 18.97933908 59 20 C59.72907562 20.25479126 60.45815125 20.50958252 61.20932007 20.77209473 C65.71248478 22.45676908 65.71248478 22.45676908 67.06396484 25.01025391 C67.19859131 26.16920166 67.19859131 26.16920166 67.3359375 27.3515625 C67.45549805 28.23875977 67.57505859 29.12595703 67.69824219 30.04003906 C67.79782227 31.01682617 67.89740234 31.99361328 68 33 C68.13825195 34.05155273 68.27650391 35.10310547 68.41894531 36.18652344 C68.85880346 39.57928933 69.24762275 42.97475398 69.625 46.375 C69.82609375 48.11716797 69.82609375 48.11716797 70.03125 49.89453125 C70.53033687 54.29973681 71 58.562251 71 63 C64.78776055 60.9829286 58.66511366 58.78962835 52.56640625 56.453125 C51.68959702 56.11883484 50.81278778 55.78454468 49.90940857 55.44012451 C48.06109627 54.73505072 46.21312428 54.02908422 44.36547852 53.32226562 C41.60179378 52.26503164 38.83713564 51.21037983 36.07226562 50.15625 C31.59123047 48.44660343 27.11235017 46.73142043 22.6350708 45.01196289 C20.86299694 44.33142217 19.09065326 43.65158367 17.3180542 42.97241211 C14.78253316 42.0001081 12.24847304 41.02409625 9.71484375 40.046875 C8.94789688 39.75323059 8.18095001 39.45958618 7.39076233 39.15704346 C2.11475884 37.11475884 2.11475884 37.11475884 1 36 C-0.16558085 28.31368713 -0.11613295 20.69777518 -0.0625 12.9375 C-0.05798828 11.69033203 -0.05347656 10.44316406 -0.04882812 9.15820312 C-0.03713163 6.10541779 -0.02074086 3.05273502 0 0 Z " fill="#47704C" transform="translate(351,130)"/>
<path d="M0 0 C3.96 0.33 7.92 0.66 12 1 C7.68086556 8.9880766 3.23266564 16.88859895 -1.3125 24.75 C-2.23192383 26.34714844 -2.23192383 26.34714844 -3.16992188 27.9765625 C-8.02047952 36.37815144 -13.00686117 44.67810194 -18 53 C-37.47 52.34 -56.94 51.68 -77 51 C-75.52574537 46.5772361 -74.32531344 43.53532415 -72.0234375 39.65625 C-71.43836426 38.66302734 -70.85329102 37.66980469 -70.25048828 36.64648438 C-69.63157715 35.60814453 -69.01266602 34.56980469 -68.375 33.5 C-67.10891168 31.35444001 -65.84328481 29.20860764 -64.578125 27.0625 C-63.96517578 26.02609375 -63.35222656 24.9896875 -62.72070312 23.921875 C-60.48941531 20.13299126 -58.29801215 16.32253059 -56.125 12.5 C-55.20074219 10.87578125 -55.20074219 10.87578125 -54.2578125 9.21875 C-53.63519531 8.12046875 -53.63519531 8.12046875 -53 7 C-45.09348016 7.56117251 -37.80795869 10.08486895 -30.3125 12.5 C-27.72638085 13.32651465 -25.13878557 14.14813088 -22.55078125 14.96875 C-21.41294189 15.33419922 -20.27510254 15.69964844 -19.1027832 16.07617188 C-16.40657964 16.87894426 -13.76693813 17.50626165 -11 18 C-10.76539063 17.31550781 -10.53078125 16.63101562 -10.2890625 15.92578125 C-8.72327377 12.37191531 -6.61947525 9.33327234 -4.375 6.1875 C-3.95476562 5.59001953 -3.53453125 4.99253906 -3.1015625 4.37695312 C-2.07220272 2.91479435 -1.0367177 1.45695101 0 0 Z " fill="#47704C" transform="translate(407,319)"/>
<path d="M0 0 C7.3096533 1.45533936 14.18841971 3.64013212 21.21875 6.09765625 C22.35783813 6.49198349 23.49692627 6.88631073 24.67053223 7.29258728 C27.06145439 8.12147135 29.45153886 8.95277531 31.84082031 9.78637695 C35.51419168 11.06744929 39.19045128 12.33994938 42.8671875 13.61132812 C45.1928823 14.41876991 47.51840928 15.2266953 49.84375 16.03515625 C50.94779175 16.41744888 52.0518335 16.79974152 53.18933105 17.19361877 C54.2012854 17.5474614 55.21323975 17.90130402 56.25585938 18.26586914 C57.15026733 18.57738419 58.04467529 18.88889923 58.96618652 19.20985413 C61 20 61 20 62 21 C62.37371888 23.38162746 62.69158579 25.74759818 62.97265625 28.140625 C63.06002548 28.85982117 63.14739471 29.57901733 63.2374115 30.32000732 C63.42182915 31.8463891 63.60410363 33.37303109 63.78442383 34.89990234 C64.05977078 37.22693463 64.3428102 39.5529335 64.62695312 41.87890625 C64.80515049 43.36192361 64.98289914 44.84499497 65.16015625 46.328125 C65.24451431 47.02101624 65.32887238 47.71390747 65.41578674 48.42779541 C65.83034876 51.97212003 66.09271151 55.43125363 66 59 C51.31348737 53.95087824 36.76600289 48.58093187 22.25 43.0625 C20.17326481 42.27515919 18.09644229 41.4880487 16.01953125 40.70117188 C11.01201592 38.80342201 6.00556708 36.90288229 1 35 C0.35466771 29.791289 -0.12407365 24.69065607 -0.09765625 19.43359375 C-0.09443359 18.28955078 -0.09121094 17.14550781 -0.08789062 15.96679688 C-0.07951172 14.80212891 -0.07113281 13.63746094 -0.0625 12.4375 C-0.05798828 11.23802734 -0.05347656 10.03855469 -0.04882812 8.80273438 C-0.03713769 5.86843641 -0.02075138 2.93424551 0 0 Z " fill="#47704C" transform="translate(350,84)"/>
<path d="M0 0 C-2.47277876 8.14475603 -6.43049611 15.69045819 -10.14648438 23.32275391 C-11.04754299 25.1882573 -11.93564384 27.06007608 -12.81054688 28.93798828 C-14.0823974 31.66481668 -15.3955103 34.36811807 -16.71875 37.0703125 C-17.09833862 37.9057962 -17.47792725 38.74127991 -17.86901855 39.6020813 C-20.12626211 44.08644794 -21.98809584 46.41296689 -26.69482422 48.34228516 C-28.45475052 48.92125389 -30.22357459 49.47382688 -32 50 C-33.66488858 50.57596727 -35.32847807 51.15570386 -36.99072266 51.73925781 C-38.71414524 52.31362871 -40.43862781 52.88482715 -42.1640625 53.453125 C-43.54118912 53.91075226 -43.54118912 53.91075226 -44.94613647 54.37762451 C-47.83815264 55.33794025 -50.73154049 56.29404308 -53.625 57.25 C-55.60295742 57.90597015 -57.58082286 58.56221769 -59.55859375 59.21875 C-64.37134008 60.81570416 -69.18532012 62.40888534 -74 64 C-75 61 -75 61 -73.77172852 58.03588867 C-73.15133107 56.82445776 -72.51952174 55.6188308 -71.87890625 54.41796875 C-71.37253883 53.44202507 -71.37253883 53.44202507 -70.85594177 52.44636536 C-69.76742608 50.35506954 -68.66489108 48.27150851 -67.5625 46.1875 C-66.85396031 44.82661794 -66.14626913 43.46529374 -65.43945312 42.10351562 C-64.0236573 39.37799403 -62.57047462 36.67690133 -61.09570312 33.98291016 C-59.70156307 31.41266014 -58.49674785 28.84948135 -57.40429688 26.13818359 C-54.33951871 19.02300077 -51.24896747 15.52484913 -44.11054993 12.59526062 C-39.58192253 10.9636299 -34.99649377 9.59090205 -30.375 8.25 C-28.48548377 7.66102618 -26.59743967 7.06730767 -24.7109375 6.46875 C-20.50543622 5.14354261 -16.28790242 3.86864966 -12.05731201 2.62609863 C-10.24620931 2.07492851 -8.45598498 1.45611907 -6.67041016 0.82714844 C-4 0 -4 0 0 0 Z " fill="#47704C" transform="translate(269,397)"/>
<path d="M0 0 C0.33 0 0.66 0 1 0 C0.44469477 16.0835355 -0.36692028 32.14143722 -1.33935547 48.2043457 C-1.38284622 48.93461472 -1.42633698 49.66488373 -1.47114563 50.4172821 C-1.58984222 52.408009 -1.71097307 54.39859034 -1.83227539 56.38916016 C-1.99641118 59.92273859 -2 63.46261154 -2 67 C6.91 70.96 6.91 70.96 16 75 C14.60427967 79.18716099 13.41870129 82.35607523 11.35546875 86.1171875 C10.84306641 87.05433594 10.33066406 87.99148438 9.80273438 88.95703125 C9.26970703 89.91996094 8.73667969 90.88289063 8.1875 91.875 C7.66607422 92.83019531 7.14464844 93.78539062 6.60742188 94.76953125 C3.57102701 100.29645224 0.39732819 105.6873574 -3 111 C-5.53710152 108.69155815 -7.10399936 106.31754284 -8.76245117 103.32348633 C-9.28856491 102.37431839 -9.81467865 101.42515045 -10.35673523 100.44721985 C-12.72105716 96.07931432 -15.04557885 91.69167937 -17.34692383 87.2902832 C-18.56873283 84.98166545 -19.8154139 82.68603167 -21.0871582 80.40454102 C-32.18877563 60.45110681 -32.18877563 60.45110681 -30.2746582 53.43310547 C-28.77368452 49.92346883 -26.67420829 46.93916262 -24.37191772 43.91073608 C-21.98858427 40.59135246 -20.28227927 36.92682503 -18.45703125 33.28125 C-17.68954663 31.81820732 -16.91805457 30.3572599 -16.14257812 28.8984375 C-14.57321076 25.93711812 -13.0085049 22.97342475 -11.44726562 20.0078125 C-3.9921008 5.89125555 -3.9921008 5.89125555 0 0 Z " fill="#47704C" transform="translate(111,174)"/>
<path d="M0 0 C-2.43828599 8.1863366 -5.88396825 15.84393814 -9.51293945 23.55834961 C-10.21386817 25.06374035 -10.90105047 26.57560664 -11.57446289 28.09350586 C-17.90753452 42.35098903 -17.90753452 42.35098903 -23.3125 44.58984375 C-25.20205447 45.08453242 -27.09930836 45.54999523 -29 46 C-31.24588607 46.74684132 -33.47051128 47.54451109 -35.69810486 48.3441925 C-39.06215186 49.54903223 -42.44370758 50.70045129 -45.82495117 51.85595703 C-48.45739677 52.75680889 -51.08711246 53.66534277 -53.71679688 54.57421875 C-55.39306926 55.14890414 -57.06949603 55.72313945 -58.74609375 56.296875 C-59.92261757 56.70459137 -59.92261757 56.70459137 -61.12290955 57.12054443 C-64.19643484 58.16445458 -66.73033698 59 -70 59 C-68.47409486 53.96792813 -66.37263884 49.40815901 -64.04296875 44.71484375 C-63.6581282 43.93613419 -63.27328766 43.15742462 -62.87678528 42.3551178 C-62.0644787 40.71605436 -61.24995779 39.07808667 -60.43334961 37.44116211 C-59.19212286 34.9467901 -57.96603148 32.44534229 -56.74023438 29.94335938 C-55.94623407 28.34589578 -55.15134162 26.74887524 -54.35546875 25.15234375 C-53.99382126 24.40951645 -53.63217377 23.66668915 -53.25956726 22.90135193 C-49.84231741 16.12559831 -46.18940131 12.02105309 -38.87890625 9.39453125 C-37.69490234 8.96849609 -36.51089844 8.54246094 -35.29101562 8.10351562 C-34.06060547 7.67748047 -32.83019531 7.25144531 -31.5625 6.8125 C-30.36689453 6.37486328 -29.17128906 5.93722656 -27.93945312 5.48632812 C-18.87182187 2.28454997 -9.67464089 0 0 0 Z " fill="#47704C" transform="translate(331,378)"/>
<path d="M0 0 C8.94436588 2.30631801 17.70499938 5.11529313 26.47265625 8.0078125 C27.96400554 8.49781248 29.45541623 8.98762564 30.94688416 9.4772644 C34.06811676 10.50261669 37.18871227 11.52987801 40.30883789 12.55859375 C44.22367396 13.8492178 48.13988028 15.13562132 52.05654335 16.42068863 C70.42936169 22.45068292 88.75417398 28.59408899 107 35 C107 35.33 107 35.66 107 36 C88.92416652 35.40154922 70.87341595 34.51054364 52.82397461 33.38037109 C50.0291284 33.20602983 47.2339615 33.03992108 44.43823242 32.88037109 C40.33671401 32.64628494 36.23682352 32.39049322 32.13671875 32.1328125 C30.88791428 32.06393829 29.6391098 31.99506409 28.35246277 31.92410278 C26.61697929 31.8091597 26.61697929 31.8091597 24.84643555 31.69189453 C23.83453659 31.630513 22.82263763 31.56913147 21.78007507 31.50588989 C17.44950293 30.71785625 14.78176137 29.11106796 12.25488281 25.51977539 C11.74280273 24.55547607 11.23072266 23.59117676 10.703125 22.59765625 C10.13722656 21.54255859 9.57132813 20.48746094 8.98828125 19.40039062 C8.41464844 18.29888672 7.84101563 17.19738281 7.25 16.0625 C6.66089844 14.96486328 6.07179687 13.86722656 5.46484375 12.73632812 C0.99400724 4.31368325 0.99400724 4.31368325 0 0 Z " fill="#47704C" transform="translate(172,264)"/>
<path d="M0 0 C1.02786621 0 2.05573242 0 3.11474609 0 C4.17032211 -0.00012085 4.17032211 -0.00012085 5.2472229 -0.00024414 C6.89271056 -0.00007684 8.53819825 0.00077114 10.1836853 0.00219727 C15.40941093 0.0054693 20.63469651 -0.00680632 25.86035156 -0.03515625 C32.14704703 -0.06555276 38.43260026 -0.04947175 44.71923828 -0.01220703 C47.34097756 -0.00401307 49.96279969 -0.01039356 52.58447266 -0.03076172 C56.4245981 -0.0579223 60.26155093 -0.03396765 64.1015625 0 C65.2641861 -0.0194165 66.42680969 -0.03883301 67.62466431 -0.05883789 C75.30183053 0.0767735 79.08972689 1.78096837 84.48471069 7.28515625 C84.98475616 7.85105469 85.48480164 8.41695313 86 9 C84.60569052 11.78861897 83.19481801 11.81701345 80.26831055 12.8034668 C79.26023849 13.14689621 78.25216644 13.49032562 77.21354675 13.84416199 C75.56676689 14.39116508 75.56676689 14.39116508 73.88671875 14.94921875 C72.7656221 15.32609329 71.64452545 15.70296783 70.48945618 16.09126282 C68.11248889 16.88764856 65.73420478 17.6801129 63.35473633 18.46899414 C59.70912938 19.68031325 56.07031941 20.91062721 52.43164062 22.14257812 C50.12538886 22.91262392 47.81876008 23.68154171 45.51171875 24.44921875 C44.4199382 24.81996017 43.32815765 25.1907016 42.20329285 25.57267761 C41.18576431 25.90665054 40.16823578 26.24062347 39.11987305 26.5847168 C38.22576218 26.88290817 37.33165131 27.18109955 36.41044617 27.48832703 C33.82387601 28.03738639 32.45653791 27.91070922 30 27 C28.34350586 25.8359375 28.34350586 25.8359375 26.71484375 24.375 C26.10680908 23.8372998 25.49877441 23.29959961 24.87231445 22.74560547 C24.23382568 22.16955566 23.59533691 21.59350586 22.9375 21 C21.59740193 19.81391929 20.25624781 18.62903074 18.9140625 17.4453125 C18.2530957 16.86040039 17.59212891 16.27548828 16.91113281 15.67285156 C12.01596569 11.38801698 7.02261375 7.12455364 1.69921875 3.3828125 C1.13847656 2.92648437 0.57773438 2.47015625 0 2 C0 1.34 0 0.68 0 0 Z " fill="#47704C" transform="translate(185,376)"/>
<path d="M0 0 C0.66 0 1.32 0 2 0 C4.38264676 24.4517776 1.94204903 39.96205754 -12.67724609 59.77832031 C-16.37532169 64.90758303 -19.62348726 70.30587179 -22.9375 75.6875 C-24.06385121 77.48795298 -25.19721366 79.28405271 -26.33984375 81.07421875 C-26.80769287 81.81244873 -27.27554199 82.55067871 -27.75756836 83.3112793 C-29 85 -29 85 -31 86 C-31.43626152 62.82531861 -29.67055828 46.58622936 -16.09423828 27.10839844 C-13.89482223 23.84388863 -11.90020477 20.49467476 -9.96484375 17.0703125 C-9.01206543 15.38566895 -9.01206543 15.38566895 -8.04003906 13.66699219 C-7.42870117 12.58063477 -6.81736328 11.49427734 -6.1875 10.375 C-5.04427979 8.35678382 -3.89279123 6.34321313 -2.73046875 4.3359375 C-2.24989014 3.49595215 -1.76931152 2.6559668 -1.27416992 1.79052734 C-0.85369385 1.19965332 -0.43321777 0.6087793 0 0 Z " fill="#47704C" transform="translate(151,127)"/>
<path d="M0 0 C2.52197266 -0.34057617 2.52197266 -0.34057617 5.6640625 -0.29296875 C6.78554688 -0.28330078 7.90703125 -0.27363281 9.0625 -0.26367188 C10.238125 -0.23853516 11.41375 -0.21339844 12.625 -0.1875 C14.40003906 -0.16719727 14.40003906 -0.16719727 16.2109375 -0.14648438 C19.14107539 -0.11103916 22.07031459 -0.06162769 25 0 C23.34033559 8.49770332 21.50682217 16.82773637 15 23 C6.10137161 27.95254436 -7.73325487 34 -18 34 C-16.68883577 29.696743 -15.02403325 25.96429682 -12.8125 22.05078125 C-12.19632812 20.95572266 -11.58015625 19.86066406 -10.9453125 18.73242188 C-10.30335938 17.60384766 -9.66140625 16.47527344 -9 15.3125 C-8.35804688 14.17232422 -7.71609375 13.03214844 -7.0546875 11.85742188 C-2.34706805 3.52060208 -2.34706805 3.52060208 0 0 Z " fill="#47704C" transform="translate(343,380)"/>
<path d="M0 0 C10.54641106 0.48470035 20.65031721 2.00774871 31 4 C30.45371836 19.04939294 29.42684594 34.00877146 28 49 C27.34 49 26.68 49 26 49 C25.63874023 48.32759277 25.27748047 47.65518555 24.90527344 46.96240234 C23.18755113 43.76622354 21.46890716 40.57054175 19.75 37.375 C19.4378656 36.79452911 19.1257312 36.21405823 18.80413818 35.61599731 C13.76687705 26.25036915 8.69021705 16.90709169 3.55761719 7.59326172 C3.08743164 6.73619629 2.61724609 5.87913086 2.1328125 4.99609375 C1.71918457 4.24513428 1.30555664 3.4941748 0.87939453 2.72045898 C0 1 0 1 0 0 Z " fill="#47704C" transform="translate(88,110)"/>
<path d="M0 0 C0.33 0 0.66 0 1 0 C2.86648041 15.93421243 -0.86809401 25.74076625 -9.26269531 39.18164062 C-11.62766559 43.01823659 -13.82842937 46.93999412 -16.03808594 50.86743164 C-17.54652923 53.54805141 -19.06831778 56.22021752 -20.6015625 58.88671875 C-21.01744629 59.61076904 -21.43333008 60.33481934 -21.86181641 61.08081055 C-22.85394488 62.75372387 -23.92111769 64.38167653 -25 66 C-25.66 66 -26.32 66 -27 66 C-29.79647193 48.99330777 -22.74090205 37.32730398 -14.03613281 23.29101562 C-12.10004988 20.16171132 -10.22344387 17.00527817 -8.3671875 13.828125 C-6.32684299 10.35026504 -4.28276889 6.87561977 -2.1953125 3.42578125 C-1.79328613 2.75973877 -1.39125977 2.09369629 -0.97705078 1.4074707 C-0.49341064 0.71077271 -0.49341064 0.71077271 0 0 Z " fill="#47704C" transform="translate(154,82)"/>
<path d="M0 0 C0.33 0 0.66 0 1 0 C3.01036756 14.37040514 -1.36345455 22.91053643 -9.40039062 34.64794922 C-10.90704012 36.86331265 -12.34781871 39.10594 -13.765625 41.37890625 C-17.85830562 47.92735533 -17.85830562 47.92735533 -20 51 C-20.33 51 -20.66 51 -21 51 C-21.63905283 43.26470614 -20.26287084 38.11192995 -16.66015625 31.30859375 C-16.21860703 30.4372731 -15.7770578 29.56595245 -15.3221283 28.66822815 C-13.92086663 25.91464807 -12.49213014 23.17643891 -11.0625 20.4375 C-10.10562055 18.56537272 -9.15052433 16.69233287 -8.19726562 14.81835938 C-6.45857794 11.41558876 -4.71494513 8.01566655 -2.94946289 4.62670898 C-2.41984703 3.60938942 -2.41984703 3.60938942 -1.87953186 2.57151794 C-1 1 -1 1 0 0 Z " fill="#47704C" transform="translate(157,43)"/>
</svg>
